<svg width="48" height="48" viewBox="0 0 48 48" fill="none" xmlns="http://www.w3.org/2000/svg">
<g clip-path="url(#clip0_783_21249)">
<rect width="48" height="48" rx="24" fill="black"/>
<path d="M30.0349 23.9138C30.0097 21.1912 32.3193 19.884 32.4213 19.8235C31.1235 17.9736 29.0999 17.7157 28.3821 17.6848C26.6592 17.5159 25.0197 18.6736 24.1483 18.6736C23.2769 18.6736 21.9262 17.7132 20.5012 17.7402C18.6207 17.7647 16.8938 18.8038 15.9257 20.4345C13.9763 23.7282 15.4251 28.6075 17.3282 31.2773C18.2552 32.5845 19.361 34.0528 20.8137 33.9999C22.2162 33.9471 22.7459 33.1194 24.4384 33.1194C26.1308 33.1194 26.6063 33.9999 28.0882 33.978C29.5939 33.9471 30.5487 32.6399 31.4678 31.3327C32.5325 29.8154 32.9748 28.3471 33 28.2698C32.9669 28.2582 30.0627 27.1727 30.0336 23.9138H30.0349Z" fill="white"/>
<path d="M27.2474 16.3515C28.0208 15.4646 28.5425 14.2291 28.3982 13C27.2871 13.0403 25.9403 13.7058 25.1444 14.589C24.4279 15.3778 23.7989 16.6384 23.9697 17.8411C25.2079 17.9304 26.4779 17.241 27.2474 16.3515Z" fill="white"/>
</g>
<defs>
<clipPath id="clip0_783_21249">
<rect width="48" height="48" fill="white"/>
</clipPath>
</defs>
</svg>
