<svg width="24" height="24" viewBox="0 0 24 24" fill="none" xmlns="http://www.w3.org/2000/svg">
<path fill-rule="evenodd" clip-rule="evenodd" d="M8.40284 4C4.86641 4 2 6.97646 2 10.6485C2 14.32 4.86641 17.2968 8.40284 17.2968H15.5972L16.1455 21C16.1455 21 21.0801 14.1975 21.4363 13.376L21.439 13.3717L21.4375 13.3728C21.7978 12.5412 22 11.6194 22 10.6485C22 6.97646 19.1337 4 15.5972 4H8.40284Z" fill="#D4D4D4"/>
<rect x="2" y="3" width="20" height="15" rx="7.5" fill="#D4D4D4"/>
<path d="M9 10.5C9 11.0523 8.55228 11.5 8 11.5C7.44772 11.5 7 11.0523 7 10.5C7 9.94772 7.44772 9.5 8 9.5C8.55228 9.5 9 9.94772 9 10.5Z" fill="white"/>
<path d="M13 10.5C13 11.0523 12.5523 11.5 12 11.5C11.4477 11.5 11 11.0523 11 10.5C11 9.94772 11.4477 9.5 12 9.5C12.5523 9.5 13 9.94772 13 10.5Z" fill="white"/>
<path d="M17 10.5C17 11.0523 16.5523 11.5 16 11.5C15.4477 11.5 15 11.0523 15 10.5C15 9.94772 15.4477 9.5 16 9.5C16.5523 9.5 17 9.94772 17 10.5Z" fill="white"/>
</svg>
