<svg width="32" height="32" viewBox="0 0 32 32" fill="none" xmlns="http://www.w3.org/2000/svg">
<g clip-path="url(#clip0_664_8619)">
<rect width="32" height="32" rx="3" fill="#CA6141"/>
<path d="M24.7209 18.6293C24.3826 18.3055 23.9663 18.0791 23.5144 17.9769C22.8733 17.8089 22.2156 17.7261 21.5532 17.7334C21.0943 17.7334 20.6377 17.7602 20.1811 17.8113C19.7079 17.8624 19.1969 17.9379 18.6741 18.0304C18.3689 17.7334 18.0661 17.4096 17.7609 17.0567C17.4605 16.7061 17.1624 16.3264 16.8738 15.9198C16.6751 15.6228 16.4787 15.3258 16.2918 15.0288C16.1049 14.7318 15.9204 14.4446 15.7643 14.1476C16.034 13.2785 16.2682 12.4241 16.4361 11.6329C16.597 10.9269 16.6845 10.2064 16.7011 9.48336C16.7106 8.93806 16.6017 8.39519 16.3864 7.89615C16.1617 7.34355 15.6294 6.98813 15.0451 7.0003C14.8582 7.00274 14.6737 7.05629 14.5104 7.15367C14.3425 7.24861 14.2052 7.38737 14.1082 7.55534C13.8385 8.04221 13.7581 8.88694 13.8717 9.88746C14.0207 11.0413 14.3401 12.166 14.818 13.2201C14.6382 13.7776 14.4394 14.3399 14.2242 14.9242C14.0089 15.5084 13.7723 16.1243 13.5144 16.7718C13.2992 17.3098 13.065 17.8454 12.8047 18.3737C12.5445 18.9019 12.3197 19.4253 12.0501 19.9292C10.8033 20.4185 9.61335 21.0466 8.50145 21.8037C7.63322 22.4269 7.11276 23.0379 7.02286 23.5954C6.98501 23.7706 6.99448 23.9508 7.04889 24.1212C7.1104 24.3013 7.21449 24.462 7.34697 24.5935C7.46999 24.6981 7.60484 24.7858 7.75151 24.8515C7.96443 24.9489 8.1939 25 8.42575 25C9.27268 25 10.1717 24.3598 11.0281 23.3909C11.9578 22.2954 12.7598 21.0928 13.4198 19.8075C13.8149 19.6614 14.2194 19.5202 14.6334 19.3912C15.0474 19.2622 15.4709 19.1478 15.9038 19.0309C16.3368 18.9141 16.8217 18.7875 17.2641 18.695C17.7065 18.6025 18.1371 18.5149 18.5677 18.4394C19.3744 19.2257 20.3325 19.8318 21.3805 20.2165C22.0169 20.4404 22.684 20.5524 23.3559 20.55C23.7533 20.5743 24.1484 20.4891 24.5033 20.3065C24.7044 20.1824 24.8605 19.9901 24.9386 19.7612C25.0096 19.5422 25.019 19.306 24.967 19.0821C24.9268 18.9117 24.8416 18.7559 24.7209 18.6293ZM14.3921 7.74035C14.456 7.62107 14.5483 7.51882 14.6571 7.44092C14.7612 7.37033 14.8818 7.33381 15.0049 7.33381C15.2438 7.32407 15.4662 7.45066 15.5868 7.66245C15.743 7.96188 15.8139 8.29782 15.7926 8.6362C15.7761 9.21801 15.7075 9.79739 15.5868 10.367C15.452 11.0633 15.2556 11.8569 15.0049 12.7089C14.5696 11.7254 14.288 10.6762 14.1721 9.60264C14.1082 8.74331 14.1934 8.09333 14.3921 7.74035ZM7.33987 23.6295C7.42977 23.1669 7.89582 22.6387 8.65995 22.0885C9.637 21.4239 10.6779 20.864 11.7662 20.4161C11.1771 21.4848 10.4768 22.4829 9.67959 23.3958C9.03137 24.0993 8.45414 24.4888 8.02357 24.4888C7.94314 24.4888 7.8627 24.4693 7.787 24.4377C7.70893 24.4036 7.63322 24.3573 7.56698 24.3038C7.47945 24.2137 7.41558 24.1042 7.37773 23.9849C7.33514 23.8705 7.32331 23.7487 7.33987 23.6295ZM18.2435 18.1107C17.8674 18.1862 17.47 18.269 17.0607 18.3542C16.6514 18.4394 16.2421 18.5465 15.8281 18.6585C15.4685 18.751 15.1184 18.8532 14.7541 18.9628C14.3898 19.0723 14.0444 19.2062 13.7061 19.3231C13.9048 18.936 14.094 18.5562 14.2644 18.1862C14.4347 17.8162 14.5885 17.4559 14.7139 17.1005C14.8747 16.6964 15.038 16.2777 15.187 15.8565C15.3361 15.4354 15.4969 15.0094 15.6412 14.5834C15.7832 14.8414 15.937 15.0994 16.1002 15.3599C16.2634 15.6204 16.4314 15.8784 16.6136 16.1389C16.8643 16.4919 17.1246 16.8351 17.3966 17.1613C17.6687 17.4875 17.9407 17.8065 18.2294 18.1034L18.2435 18.1107ZM18.9533 18.3347C19.7292 18.1886 20.517 18.1083 21.3048 18.0913C21.83 18.0694 22.3576 18.1059 22.8757 18.1984C23.1595 18.2519 23.4174 18.4004 23.609 18.6244C23.7723 18.8386 23.8314 19.1186 23.7746 19.3839C23.7179 19.6931 23.5073 19.9487 23.2211 20.0582C22.8804 20.1946 22.5066 20.2165 22.1541 20.124C21.5367 19.9633 20.9429 19.7199 20.3916 19.3937C19.8854 19.0845 19.4075 18.7291 18.9627 18.3347H18.9533Z" fill="white"/>
</g>
<defs>
<clipPath id="clip0_664_8619">
<rect width="32" height="32" fill="white"/>
</clipPath>
</defs>
</svg>
