<svg width="32" height="32" viewBox="0 0 32 32" fill="none" xmlns="http://www.w3.org/2000/svg">
<g clip-path="url(#clip0_664_5622)">
<path d="M0 6.55816C0 5.08427 1.07065 3.8287 2.52603 3.59584L21.526 0.555835C23.3488 0.264195 25 1.67222 25 3.51816V28.4818C25 30.3278 23.3488 31.7358 21.526 31.4442L2.52603 28.4042C1.07065 28.1713 0 26.9157 0 25.4418V6.55816Z" fill="#39724E"/>
<path d="M27 2H29C30.6569 2 32 3.34315 32 5V27C32 28.6569 30.6569 30 29 30H27V2Z" fill="#39724E"/>
<path fill-rule="evenodd" clip-rule="evenodd" d="M8.2227 10.4531L10.8264 10.3138L12.4629 14.5352L14.3974 10.1393L17 10L13.839 15.9922L17 22L14.2478 21.8254L12.3886 17.2466L10.5295 21.6508L8 21.4419L10.9383 16.1356L8.2227 10.4531Z" fill="white"/>
</g>
<defs>
<clipPath id="clip0_664_5622">
<rect width="32" height="32" fill="white"/>
</clipPath>
</defs>
</svg>
