<svg width="20" height="20" viewBox="0 0 20 20" fill="none" xmlns="http://www.w3.org/2000/svg">
<path d="M11.521 3.06585L12.4901 5.55566C12.7269 6.15822 13.2697 6.57129 13.8963 6.61677L16.472 6.81004C17.9438 6.91994 18.5413 8.83373 17.4119 9.82283L15.4373 11.5509C14.9564 11.9716 14.7488 12.6386 14.9018 13.2676L15.5211 15.8749C15.8745 17.3643 14.3116 18.5467 13.0584 17.7357L10.8689 16.3145C10.337 15.9697 9.66301 15.9697 9.13112 16.3145L6.94161 17.7357C5.68838 18.5467 4.12549 17.3643 4.47887 15.8749L5.0982 13.2676C5.24757 12.6348 5.03991 11.9678 4.56266 11.5509L2.5881 9.82283C1.45874 8.83373 2.05621 6.91994 3.52802 6.81004L6.1037 6.61677C6.72667 6.57129 7.27314 6.15822 7.50994 5.55566L8.479 3.06585C9.03276 1.64472 10.9672 1.64472 11.521 3.06585Z" fill="#FFCB32"/>
</svg>
