<svg width="65" height="24" viewBox="0 0 65 24" fill="none" xmlns="http://www.w3.org/2000/svg">
<g clip-path="url(#clip0_405_14904)">
<rect x="0.5" y="0.5" width="64" height="23" rx="11.5" fill="white" stroke="#D4D4D4"/>
<path d="M31.3428 7.124H32.3268V17.9H31.3428V7.124ZM24.1308 8.036H25.1028V10.88H28.2228V8.036H29.1948V15.296H24.1308V8.036ZM25.1028 11.66V14.492H28.2228V11.66H25.1028ZM41.5819 8.588V8.468H35.2219V7.676H42.5539V8.588C42.5539 9.452 42.5539 10.328 42.2539 11.432L41.2939 11.324C41.5819 10.22 41.5819 9.428 41.5819 8.588ZM38.8819 17.108C40.5739 17.108 41.6539 16.652 41.6539 15.908C41.6539 15.14 40.5739 14.684 38.8819 14.684C37.2019 14.684 36.1219 15.14 36.1219 15.908C36.1219 16.652 37.2019 17.108 38.8819 17.108ZM38.8819 13.928C41.1739 13.928 42.6379 14.66 42.6379 15.908C42.6379 17.132 41.1739 17.876 38.8819 17.876C36.5899 17.876 35.1379 17.132 35.1379 15.908C35.1379 14.66 36.5899 13.928 38.8819 13.928ZM39.0379 12.14H43.7659V12.932H34.0819V12.14H38.0539V10.076H39.0379V12.14ZM45.0049 8.516H49.2049C49.2049 11.288 48.2329 13.856 45.1729 15.584L44.5969 14.876C47.0689 13.496 48.0889 11.552 48.2329 9.32H45.0049V8.516ZM52.7809 7.124H53.7289V17.888H52.7809V12.26H51.3169V17.348H50.3929V7.412H51.3169V11.456H52.7809V7.124Z" fill="#D4D4D4"/>
<rect x="12.5" y="7.5" width="5" height="8" rx="2.5" stroke="#D4D4D4"/>
<rect x="11.5" y="11.5" width="7" height="5" rx="1.5" fill="white" stroke="#D4D4D4"/>
</g>
<defs>
<clipPath id="clip0_405_14904">
<rect width="65" height="24" fill="white"/>
</clipPath>
</defs>
</svg>
