<svg width="50" height="50" viewBox="0 0 50 50" fill="none" xmlns="http://www.w3.org/2000/svg">
<path d="M0 25C0 11.1929 11.1929 0 25 0C38.8071 0 50 11.1929 50 25C50 38.8071 38.8071 50 25 50C11.1929 50 0 38.8071 0 25Z" fill="#BFBFBF"/>
<path fill-rule="evenodd" clip-rule="evenodd" d="M25.0002 15C24.2112 15 23.5716 15.6396 23.5716 16.4286V23.5714H16.4286C15.6396 23.5714 15 24.211 15 25C15 25.789 15.6396 26.4286 16.4286 26.4286H23.5716V33.5714C23.5716 34.3604 24.2112 35 25.0002 35C25.7892 35 26.4288 34.3604 26.4288 33.5714V26.4286H33.5714C34.3604 26.4286 35 25.789 35 25C35 24.211 34.3604 23.5714 33.5714 23.5714H26.4288V16.4286C26.4288 15.6396 25.7892 15 25.0002 15Z" fill="white"/>
</svg>
