<svg width="65" height="24" viewBox="0 0 65 24" fill="none" xmlns="http://www.w3.org/2000/svg">
<g clip-path="url(#clip0_405_14906)">
<rect x="0.5" y="0.5" width="64" height="23" rx="11.5" fill="white" stroke="#FB5910"/>
<path d="M32.38 12.452V13.256H27.988V17.9H26.992V13.256H22.648V12.452H29.788C30.124 10.904 30.124 9.764 30.124 8.756V8.612H23.86V7.82H31.084V8.756C31.084 9.764 31.084 10.904 30.784 12.452H32.38ZM34.2551 15.128V14.324H41.7311V17.972H40.7351V15.128H34.2551ZM38.5391 12.488H42.9191V13.28H33.1751V12.488H37.5551V11.204H34.3991V7.556H41.7071V8.348H35.3831V10.412H41.8031V11.204H38.5391V12.488ZM44.6141 11.516L44.2661 10.736C46.1501 10.52 47.8661 9.596 47.9501 8.408H44.6141V7.616H52.5701V8.408H49.2221C49.3061 9.596 51.0221 10.52 52.9061 10.736L52.5581 11.516C50.7941 11.3 49.1861 10.508 48.5861 9.32C47.9981 10.508 46.3781 11.3 44.6141 11.516ZM51.2621 15.98C51.2621 15.26 50.2541 14.852 48.5741 14.852C46.8821 14.852 45.8861 15.26 45.8861 15.98C45.8861 16.7 46.8821 17.12 48.5741 17.12C50.2541 17.12 51.2621 16.7 51.2621 15.98ZM53.4461 12.956H49.0781V14.108C51.0821 14.204 52.2581 14.864 52.2581 15.98C52.2581 17.204 50.8781 17.876 48.5861 17.876C46.2821 17.876 44.8901 17.204 44.8901 15.98C44.8901 14.864 46.0781 14.204 48.0821 14.108V12.956H43.7141V12.164H53.4461V12.956Z" fill="#FB5910"/>
<path d="M11 11.8529L13.88 14.5L19 9.5" stroke="#FB5910" stroke-linecap="round" stroke-linejoin="round"/>
</g>
<defs>
<clipPath id="clip0_405_14906">
<rect width="65" height="24" fill="white"/>
</clipPath>
</defs>
</svg>
