<svg width="32" height="32" viewBox="0 0 32 32" fill="none" xmlns="http://www.w3.org/2000/svg">
<rect x="2" y="2" width="28" height="28" rx="14" fill="white"/>
<path d="M17.3309 9.93264L18.1788 12.1113C18.386 12.6385 18.861 13 19.4093 13.0398L21.663 13.2089C22.9508 13.3051 23.4736 14.9797 22.4854 15.8452L20.7577 17.3573C20.3369 17.7254 20.1552 18.309 20.2891 18.8595L20.831 21.1409C21.1402 22.4441 19.7727 23.4787 18.6761 22.7691L16.7603 21.5256C16.2949 21.2238 15.7051 21.2238 15.2397 21.5256L13.3239 22.7691C12.2273 23.4787 10.8598 22.4441 11.169 21.1409L11.7109 18.8595C11.8416 18.3057 11.6599 17.7221 11.2423 17.3573L9.51459 15.8452C8.52639 14.9797 9.04918 13.3051 10.337 13.2089L12.5907 13.0398C13.1358 13 13.614 12.6385 13.8212 12.1113L14.6691 9.93264C15.1537 8.68912 16.8463 8.68912 17.3309 9.93264Z" fill="#CCCCCC"/>
</svg>
