<svg width="32" height="32" viewBox="0 0 32 32" fill="none" xmlns="http://www.w3.org/2000/svg">
<rect x="2" y="2" width="28" height="28" rx="14" fill="white"/>
<path d="M21.3533 10.5696C20.7941 10.2262 20.2748 10.1328 19.7981 10.0889C18.8527 10.001 17.9845 10.4213 17.3027 11.0338C16.7861 11.4981 16.2109 12.1244 15.9739 12.7727C15.5025 11.3415 13.8753 9.89108 12.2881 10.0065C11.8087 10.0394 11.2868 10.1218 10.7195 10.4542C8.34936 11.8332 8.07239 16.0718 12.1789 19.6099C12.8207 20.1648 13.5717 20.7005 14.4372 21.2059C14.9299 21.4944 15.886 22.0108 15.9073 21.9998C15.9099 21.9998 15.9446 21.9888 16.0005 21.9641C16.2588 21.8432 16.9858 21.4697 17.396 21.2389C18.2721 20.7527 19.0338 20.2335 19.6889 19.6924C23.8726 16.2476 23.6942 12.0008 21.3533 10.5696Z" fill="#CCCCCC"/>
</svg>
