<svg width="54" height="24" viewBox="0 0 54 24" fill="none" xmlns="http://www.w3.org/2000/svg">
<g clip-path="url(#clip0_405_14903)">
<rect x="0.5" y="0.5" width="53" height="23" rx="11.5" fill="white" stroke="black"/>
<path d="M30.5819 8.588V8.468H24.2219V7.676H31.5539V8.588C31.5539 9.452 31.5539 10.328 31.2539 11.432L30.2939 11.324C30.5819 10.22 30.5819 9.428 30.5819 8.588ZM27.8819 17.108C29.5739 17.108 30.6539 16.652 30.6539 15.908C30.6539 15.14 29.5739 14.684 27.8819 14.684C26.2019 14.684 25.1219 15.14 25.1219 15.908C25.1219 16.652 26.2019 17.108 27.8819 17.108ZM27.8819 13.928C30.1739 13.928 31.6379 14.66 31.6379 15.908C31.6379 17.132 30.1739 17.876 27.8819 17.876C25.5899 17.876 24.1379 17.132 24.1379 15.908C24.1379 14.66 25.5899 13.928 27.8819 13.928ZM28.0379 12.14H32.7659V12.932H23.0819V12.14H27.0539V10.076H28.0379V12.14ZM34.0049 8.516H38.2049C38.2049 11.288 37.2329 13.856 34.1729 15.584L33.5969 14.876C36.0689 13.496 37.0889 11.552 37.2329 9.32H34.0049V8.516ZM41.7809 7.124H42.7289V17.888H41.7809V12.26H40.3169V17.348H39.3929V7.412H40.3169V11.456H41.7809V7.124Z" fill="black"/>
<rect x="13.6206" y="6.98933" width="5" height="8" rx="2.5" transform="rotate(15 13.6206 6.98933)" stroke="black"/>
<path d="M14 12.1H11.5L12 9.59998L13.5 9.5L14 12.1Z" fill="white"/>
<rect x="11.5" y="11.5" width="7" height="5" rx="1.5" fill="white" stroke="black"/>
</g>
<defs>
<clipPath id="clip0_405_14903">
<rect width="54" height="24" fill="white"/>
</clipPath>
</defs>
</svg>
