<svg width="48" height="48" viewBox="0 0 48 48" fill="none" xmlns="http://www.w3.org/2000/svg">
<g clip-path="url(#clip0_783_21252)">
<rect x="0.5" y="0.5" width="47" height="47" rx="23.5" fill="white" stroke="#D4D4D4"/>
<path fill-rule="evenodd" clip-rule="evenodd" d="M34.9994 24.2497C34.9994 23.4694 34.9275 22.7202 34.7953 22H24.2246V26.2549H30.2655C30.0053 27.6301 29.2144 28.7948 28.0259 29.5751V32.3347H31.6538C33.776 30.4197 35.0004 27.6 35.0004 24.2497H34.9994Z" fill="#3E82F1"/>
<path fill-rule="evenodd" clip-rule="evenodd" d="M24.2257 34.9997C27.2562 34.9997 29.7971 34.0142 31.6538 32.3344L28.0259 29.5748C27.0204 30.2349 25.7356 30.6246 24.2246 30.6246C21.301 30.6246 18.8267 28.6898 17.9438 26.0898H14.1953V28.9396C16.0426 32.5344 19.8375 34.9997 24.2257 34.9997Z" fill="#32A753"/>
<path fill-rule="evenodd" clip-rule="evenodd" d="M17.9433 26.0886C17.7191 25.4285 17.5912 24.7239 17.5912 23.9985C17.5912 23.2731 17.7191 22.5684 17.9433 21.9083V19.0586H14.1938C13.4335 20.5436 13 22.2234 13 23.9985C13 25.7736 13.4335 27.4534 14.1938 28.9384L17.9433 26.0886Z" fill="#F9BB00"/>
<path fill-rule="evenodd" clip-rule="evenodd" d="M24.2257 17.3751C25.8731 17.3751 27.3534 17.9306 28.5166 19.0197L31.7363 15.8642C29.7918 14.0902 27.2509 13 24.2257 13C19.8375 13 16.0426 15.4653 14.1953 19.0601L17.9448 21.9098C18.8277 19.3098 21.302 17.3751 24.2257 17.3751Z" fill="#E74133"/>
</g>
<defs>
<clipPath id="clip0_783_21252">
<rect width="48" height="48" fill="white"/>
</clipPath>
</defs>
</svg>
