<svg width="16" height="14" viewBox="0 0 16 14" fill="none" xmlns="http://www.w3.org/2000/svg">
<path d="M14.1181 0.664523C13.479 0.26392 12.8855 0.154956 12.3407 0.103678C11.2602 0.00112399 10.268 0.491462 9.48885 1.20614C8.8984 1.74775 8.24099 2.47845 7.97012 3.23479C7.43141 1.56508 5.57179 -0.127069 3.75783 0.00753373C3.20999 0.0459916 2.61345 0.142136 1.96517 0.52992C-0.743593 2.13874 -1.06012 7.08379 3.63304 11.2116C4.36654 11.859 5.22483 12.4839 6.21398 13.0736C6.77704 13.4101 7.86968 14.0126 7.89403 13.9998C7.89707 13.9998 7.93664 13.987 8.00055 13.9581C8.29578 13.8171 9.12667 13.3813 9.59538 13.1121C10.5967 12.5448 11.4672 11.9391 12.2159 11.3077C16.9973 7.2889 16.7934 2.33424 14.1181 0.664523Z" fill="white"/>
</svg>
