<svg width="24" height="24" viewBox="0 0 24 24" fill="none" xmlns="http://www.w3.org/2000/svg">
<mask id="path-1-inside-1_981_24377" fill="white">
<path fill-rule="evenodd" clip-rule="evenodd" d="M4 3C2.89543 3 2 3.89543 2 5V8V11V18C2 19.6569 3.34315 21 5 21H19C20.6569 21 22 19.6569 22 18V8C22 6.34315 20.6569 5 19 5H11C11 3.89543 10.1046 3 9 3H4Z"/>
</mask>
<path fill-rule="evenodd" clip-rule="evenodd" d="M4 3C2.89543 3 2 3.89543 2 5V8V11V18C2 19.6569 3.34315 21 5 21H19C20.6569 21 22 19.6569 22 18V8C22 6.34315 20.6569 5 19 5H11C11 3.89543 10.1046 3 9 3H4Z" fill="white"/>
<path d="M11 5H9.5C9.5 5.82843 10.1716 6.5 11 6.5V5ZM3.5 5C3.5 4.72386 3.72386 4.5 4 4.5V1.5C2.067 1.5 0.5 3.067 0.5 5H3.5ZM3.5 8V5H0.5V8H3.5ZM3.5 11V8H0.5V11H3.5ZM3.5 18V11H0.5V18H3.5ZM5 19.5C4.17157 19.5 3.5 18.8284 3.5 18H0.5C0.5 20.4853 2.51472 22.5 5 22.5V19.5ZM19 19.5H5V22.5H19V19.5ZM20.5 18C20.5 18.8284 19.8284 19.5 19 19.5V22.5C21.4853 22.5 23.5 20.4853 23.5 18H20.5ZM20.5 8V18H23.5V8H20.5ZM19 6.5C19.8284 6.5 20.5 7.17157 20.5 8H23.5C23.5 5.51472 21.4853 3.5 19 3.5V6.5ZM11 6.5H19V3.5H11V6.5ZM9 4.5C9.27614 4.5 9.5 4.72386 9.5 5H12.5C12.5 3.067 10.933 1.5 9 1.5V4.5ZM4 4.5H9V1.5H4V4.5Z" fill="black" mask="url(#path-1-inside-1_981_24377)"/>
</svg>
