<svg width="24" height="24" viewBox="0 0 24 24" fill="none" xmlns="http://www.w3.org/2000/svg">
<path d="M4.34666 20.6374C3.48597 20.8457 2.92014 19.8256 3.40124 19.0822C3.63313 18.7238 3.86724 18.3357 4.08035 17.9366C4.2605 17.5991 4.20323 17.1919 3.98328 16.879C2.9952 15.4733 2.42158 13.7984 2.42158 12C2.42105 7.02958 6.80402 3 12.2105 3C17.617 3 22 7.02958 22 12C22 16.9704 17.617 21 12.2105 21C10.5104 21 8.9114 20.6009 7.51829 19.8998C7.20619 19.7428 6.83814 19.7389 6.52167 19.887C5.99416 20.1337 5.26821 20.4142 4.34666 20.6374Z" fill="black"/>
<circle cx="8" cy="12" r="1" fill="white"/>
<circle cx="12" cy="12" r="1" fill="white"/>
<circle cx="16" cy="12" r="1" fill="white"/>
</svg>
