<svg width="20" height="20" viewBox="0 0 20 20" fill="none" xmlns="http://www.w3.org/2000/svg">
<path fill-rule="evenodd" clip-rule="evenodd" d="M2 3.75C2 3.33579 2.33579 3 2.75 3H17.25C17.6642 3 18 3.33579 18 3.75C18 4.16421 17.6642 4.5 17.25 4.5H2.75C2.33579 4.5 2 4.16421 2 3.75ZM2 10C2 9.58579 2.33579 9.25 2.75 9.25H17.25C17.6642 9.25 18 9.58579 18 10C18 10.4142 17.6642 10.75 17.25 10.75H2.75C2.33579 10.75 2 10.4142 2 10ZM2.75 15.5C2.33579 15.5 2 15.8358 2 16.25C2 16.6642 2.33579 17 2.75 17H17.25C17.6642 17 18 16.6642 18 16.25C18 15.8358 17.6642 15.5 17.25 15.5H2.75Z" fill="#666666"/>
</svg>
