<svg width="24" height="24" viewBox="0 0 24 24" fill="none" xmlns="http://www.w3.org/2000/svg">
<path d="M12.1772 2.82422C17.2363 2.82422 21.3528 6.94073 21.3528 11.9998" stroke="black" stroke-width="1.5" stroke-linecap="round" stroke-linejoin="round"/>
<path d="M12.1772 5.76562C15.6123 5.76562 18.4097 8.56035 18.4097 11.9981" stroke="black" stroke-width="1.5" stroke-linecap="round" stroke-linejoin="round"/>
<path d="M12.1772 9.04688C13.8041 9.04688 15.1286 10.3714 15.1286 11.9982" stroke="black" stroke-width="1.5" stroke-linecap="round" stroke-linejoin="round"/>
<path d="M17.9939 18.2161C17.9642 18.4506 17.8537 18.6851 17.7055 18.8334L16.6138 19.9278C12.894 23.0411 8.1714 18.4021 8.12288 18.3563L5.65378 15.8845C5.60796 15.836 0.966272 11.1161 4.06612 7.40706L5.17667 6.29651C5.32223 6.15095 5.55944 6.04043 5.79125 6.00809C5.83708 6.0027 5.88021 6 5.92333 6C6.09585 6 6.23601 6.04582 6.31688 6.12669L8.62425 8.78986C8.90188 9.0675 8.90188 9.51496 8.62425 9.7926L7.78324 10.6363C7.57569 10.86 7.43013 11.0703 7.33579 11.2832C7.15249 11.7873 6.85868 13.1054 8.12557 14.4693L9.54342 15.8899C10.8993 17.1487 12.2174 16.8549 12.7376 16.6662C12.9317 16.5799 13.1446 16.4317 13.3738 16.2187L14.2094 15.3831C14.4762 15.1163 14.9291 15.1001 15.2256 15.3966L17.8645 17.6824C17.975 17.7983 18.0208 17.9924 17.9912 18.2161H17.9939Z" fill="white" stroke="black" stroke-width="1.5" stroke-linecap="round" stroke-linejoin="round"/>
</svg>
