<svg width="24" height="24" viewBox="0 0 24 24" fill="none" xmlns="http://www.w3.org/2000/svg">
<rect x="2" y="6" width="20" height="12" rx="2" fill="black"/>
<path d="M7.00253 12.6402C6.68975 12.6402 6.43384 12.3847 6.43384 12.0724V10.5678C6.43384 10.2555 6.68975 10 7.00253 10C7.31531 10 7.57122 10.2555 7.57122 10.5678V12.0724C7.57122 12.3847 7.31531 12.6402 7.00253 12.6402Z" fill="white"/>
<path d="M5.79969 13.9966C5.65467 13.9966 5.50966 13.9398 5.39876 13.8319C5.17697 13.6105 5.17697 13.2499 5.39876 13.0285L6.60154 11.8277C6.70959 11.7198 6.85176 11.6602 7.00531 11.6602C7.15601 11.6602 7.30103 11.7198 7.40623 11.8277L8.61185 13.0285C8.83364 13.2499 8.83364 13.6105 8.61185 13.8319C8.39007 14.0533 8.02895 14.0533 7.80716 13.8319L7.00531 13.0313L6.20346 13.8319C6.09256 13.9426 5.94755 13.9994 5.79969 13.9994V13.9966Z" fill="white"/>
<path d="M7.00263 12.677C6.92301 12.677 6.84339 12.66 6.76946 12.6288L5.33637 11.99C5.05202 11.8623 4.92122 11.5244 5.04918 11.2406C5.17713 10.9538 5.51266 10.8261 5.79985 10.9538L6.99978 11.4904L8.19972 10.9538C8.4869 10.8261 8.82243 10.9538 8.95038 11.2406C9.07834 11.5273 8.95038 11.8623 8.6632 11.99L7.2301 12.6288C7.15617 12.6628 7.07655 12.677 6.99694 12.677H7.00263Z" fill="white"/>
<path d="M12.0025 12.6402C11.6897 12.6402 11.4338 12.3847 11.4338 12.0724V10.5678C11.4338 10.2555 11.6897 10 12.0025 10C12.3153 10 12.5712 10.2555 12.5712 10.5678V12.0724C12.5712 12.3847 12.3153 12.6402 12.0025 12.6402Z" fill="white"/>
<path d="M10.7997 13.9966C10.6547 13.9966 10.5097 13.9398 10.3988 13.8319C10.177 13.6105 10.177 13.2499 10.3988 13.0285L11.6015 11.8277C11.7096 11.7198 11.8518 11.6602 12.0053 11.6602C12.156 11.6602 12.301 11.7198 12.4062 11.8277L13.6119 13.0285C13.8336 13.2499 13.8336 13.6105 13.6119 13.8319C13.3901 14.0533 13.0289 14.0533 12.8072 13.8319L12.0053 13.0313L11.2035 13.8319C11.0926 13.9426 10.9475 13.9994 10.7997 13.9994V13.9966Z" fill="white"/>
<path d="M12.0026 12.677C11.923 12.677 11.8434 12.66 11.7695 12.6288L10.3364 11.99C10.052 11.8623 9.92122 11.5244 10.0492 11.2406C10.1771 10.9538 10.5127 10.8261 10.7998 10.9538L11.9998 11.4904L13.1997 10.9538C13.4869 10.8261 13.8224 10.9538 13.9504 11.2406C14.0783 11.5273 13.9504 11.8623 13.6632 11.99L12.2301 12.6288C12.1562 12.6628 12.0766 12.677 11.9969 12.677H12.0026Z" fill="white"/>
<path d="M17.0025 12.6402C16.6897 12.6402 16.4338 12.3847 16.4338 12.0724V10.5678C16.4338 10.2555 16.6897 10 17.0025 10C17.3153 10 17.5712 10.2555 17.5712 10.5678V12.0724C17.5712 12.3847 17.3153 12.6402 17.0025 12.6402Z" fill="white"/>
<path d="M15.7997 13.9966C15.6547 13.9966 15.5097 13.9398 15.3988 13.8319C15.177 13.6105 15.177 13.2499 15.3988 13.0285L16.6015 11.8277C16.7096 11.7198 16.8518 11.6602 17.0053 11.6602C17.156 11.6602 17.301 11.7198 17.4062 11.8277L18.6119 13.0285C18.8336 13.2499 18.8336 13.6105 18.6119 13.8319C18.3901 14.0533 18.0289 14.0533 17.8072 13.8319L17.0053 13.0313L16.2035 13.8319C16.0926 13.9426 15.9475 13.9994 15.7997 13.9994V13.9966Z" fill="white"/>
<path d="M17.0026 12.677C16.923 12.677 16.8434 12.66 16.7695 12.6288L15.3364 11.99C15.052 11.8623 14.9212 11.5244 15.0492 11.2406C15.1771 10.9538 15.5127 10.8261 15.7998 10.9538L16.9998 11.4904L18.1997 10.9538C18.4869 10.8261 18.8224 10.9538 18.9504 11.2406C19.0783 11.5273 18.9504 11.8623 18.6632 11.99L17.2301 12.6288C17.1562 12.6628 17.0766 12.677 16.9969 12.677H17.0026Z" fill="white"/>
</svg>
