<svg width="24" height="24" viewBox="0 0 24 24" fill="none" xmlns="http://www.w3.org/2000/svg">
<rect x="2" y="6" width="20" height="12" rx="2" fill="#CCCCCC"/>
<path d="M7.00228 12.6402C6.6895 12.6402 6.43359 12.3847 6.43359 12.0724V10.5678C6.43359 10.2555 6.6895 10 7.00228 10C7.31506 10 7.57097 10.2555 7.57097 10.5678V12.0724C7.57097 12.3847 7.31506 12.6402 7.00228 12.6402Z" fill="white"/>
<path d="M5.79969 13.9966C5.65467 13.9966 5.50966 13.9398 5.39876 13.8319C5.17697 13.6105 5.17697 13.2499 5.39876 13.0285L6.60154 11.8277C6.70959 11.7198 6.85176 11.6602 7.00531 11.6602C7.15601 11.6602 7.30103 11.7198 7.40623 11.8277L8.61185 13.0285C8.83364 13.2499 8.83364 13.6105 8.61185 13.8319C8.39007 14.0533 8.02895 14.0533 7.80716 13.8319L7.00531 13.0313L6.20346 13.8319C6.09256 13.9426 5.94755 13.9994 5.79969 13.9994V13.9966Z" fill="white"/>
<path d="M7.00263 12.679C6.92301 12.679 6.84339 12.662 6.76946 12.6307L5.33637 11.992C5.05202 11.8642 4.92122 11.5264 5.04918 11.2425C5.17713 10.9558 5.51266 10.828 5.79985 10.9558L6.99978 11.4923L8.19972 10.9558C8.4869 10.828 8.82243 10.9558 8.95038 11.2425C9.07834 11.5292 8.95038 11.8642 8.6632 11.992L7.2301 12.6307C7.15617 12.6648 7.07655 12.679 6.99694 12.679H7.00263Z" fill="white"/>
<path d="M12.0023 12.6402C11.6895 12.6402 11.4336 12.3847 11.4336 12.0724V10.5678C11.4336 10.2555 11.6895 10 12.0023 10C12.3151 10 12.571 10.2555 12.571 10.5678V12.0724C12.571 12.3847 12.3151 12.6402 12.0023 12.6402Z" fill="white"/>
<path d="M10.7997 13.9966C10.6547 13.9966 10.5097 13.9398 10.3988 13.8319C10.177 13.6105 10.177 13.2499 10.3988 13.0285L11.6015 11.8277C11.7096 11.7198 11.8518 11.6602 12.0053 11.6602C12.156 11.6602 12.301 11.7198 12.4062 11.8277L13.6119 13.0285C13.8336 13.2499 13.8336 13.6105 13.6119 13.8319C13.3901 14.0533 13.0289 14.0533 12.8072 13.8319L12.0053 13.0313L11.2035 13.8319C11.0926 13.9426 10.9475 13.9994 10.7997 13.9994V13.9966Z" fill="white"/>
<path d="M12.0026 12.679C11.923 12.679 11.8434 12.662 11.7695 12.6307L10.3364 11.992C10.052 11.8642 9.92122 11.5264 10.0492 11.2425C10.1771 10.9558 10.5127 10.828 10.7998 10.9558L11.9998 11.4923L13.1997 10.9558C13.4869 10.828 13.8224 10.9558 13.9504 11.2425C14.0783 11.5292 13.9504 11.8642 13.6632 11.992L12.2301 12.6307C12.1562 12.6648 12.0766 12.679 11.9969 12.679H12.0026Z" fill="white"/>
<path d="M17.0023 12.6402C16.6895 12.6402 16.4336 12.3847 16.4336 12.0724V10.5678C16.4336 10.2555 16.6895 10 17.0023 10C17.3151 10 17.571 10.2555 17.571 10.5678V12.0724C17.571 12.3847 17.3151 12.6402 17.0023 12.6402Z" fill="white"/>
<path d="M15.7997 13.9966C15.6547 13.9966 15.5097 13.9398 15.3988 13.8319C15.177 13.6105 15.177 13.2499 15.3988 13.0285L16.6015 11.8277C16.7096 11.7198 16.8518 11.6602 17.0053 11.6602C17.156 11.6602 17.301 11.7198 17.4062 11.8277L18.6119 13.0285C18.8336 13.2499 18.8336 13.6105 18.6119 13.8319C18.3901 14.0533 18.0289 14.0533 17.8072 13.8319L17.0053 13.0313L16.2035 13.8319C16.0926 13.9426 15.9475 13.9994 15.7997 13.9994V13.9966Z" fill="white"/>
<path d="M17.0026 12.679C16.923 12.679 16.8434 12.662 16.7695 12.6307L15.3364 11.992C15.052 11.8642 14.9212 11.5264 15.0492 11.2425C15.1771 10.9558 15.5127 10.828 15.7998 10.9558L16.9998 11.4923L18.1997 10.9558C18.4869 10.828 18.8224 10.9558 18.9504 11.2425C19.0783 11.5292 18.9504 11.8642 18.6632 11.992L17.2301 12.6307C17.1562 12.6648 17.0766 12.679 16.9969 12.679H17.0026Z" fill="white"/>
</svg>
