<svg width="24" height="24" viewBox="0 0 24 24" fill="none" xmlns="http://www.w3.org/2000/svg">
<rect x="2.5" y="2.5" width="19" height="19" rx="2.5" fill="white" stroke="black"/>
<mask id="mask0_703_10137" style="mask-type:alpha" maskUnits="userSpaceOnUse" x="2" y="2" width="20" height="20">
<rect x="2" y="2" width="20" height="20" rx="3" fill="#D9D9D9"/>
</mask>
<g mask="url(#mask0_703_10137)">
<path d="M15.8573 15.2659L15.8572 15.2661L15.3779 16.3008C15.3779 16.3009 15.3778 16.301 15.3778 16.301C15.0193 17.0739 14.6388 17.2593 14.4269 17.2593C14.215 17.2593 13.8344 17.0739 13.4759 16.3008L13.4759 16.3008L10.5708 10.0378C10.5708 10.0378 10.5708 10.0378 10.5708 10.0377C10.1575 9.14665 9.51939 8.5 8.7126 8.5C7.90581 8.5 7.26769 9.14666 6.85441 10.0378L1.87605 20.7623L1.87598 20.7625C1.45134 21.6781 1.37294 22.5957 1.70905 23.3208C2.05872 24.0751 2.80045 24.5 3.73417 24.5H20.2658C21.1996 24.5 21.9413 24.0751 22.291 23.3208C22.6271 22.5957 22.5487 21.6781 22.124 20.7625L22.124 20.7624L19.5737 15.2659C19.1604 14.3748 18.5223 13.7282 17.7155 13.7282C16.9087 13.7282 16.2706 14.3748 15.8573 15.2659Z" stroke="black"/>
</g>
<circle cx="16" cy="7" r="1.5" stroke="black"/>
</svg>
