<svg width="30" height="30" viewBox="0 0 30 30" fill="none" xmlns="http://www.w3.org/2000/svg">
<g clip-path="url(#clip0_783_21670)">
<rect width="30" height="30" rx="8" fill="black"/>
<path d="M19.6938 15.3134C19.6742 13.2391 21.4706 12.2431 21.5499 12.197C20.5405 10.7875 18.9666 10.5911 18.4083 10.5675C17.0683 10.4388 15.7931 11.3208 15.1154 11.3208C14.4376 11.3208 13.387 10.5891 12.2787 10.6097C10.8161 10.6284 9.47295 11.42 8.72001 12.6625C7.20383 15.172 8.33066 18.8896 9.8108 20.9237C10.5318 21.9196 11.3919 23.0383 12.5218 22.9981C13.6126 22.9578 14.0246 22.3272 15.3409 22.3272C16.6573 22.3272 17.0271 22.9981 18.1797 22.9814C19.3508 22.9578 20.0934 21.9619 20.8083 20.9659C21.6364 19.8099 21.9804 18.6912 22 18.6323C21.9742 18.6234 19.7154 17.7964 19.6928 15.3134H19.6938Z" fill="white"/>
<path d="M17.5265 9.55355C18.128 8.87778 18.5339 7.93649 18.4216 7C17.5574 7.03067 16.5099 7.53774 15.8908 8.21063C15.3336 8.81164 14.8443 9.77209 14.9772 10.6885C15.9403 10.7565 16.9281 10.2312 17.5265 9.55355Z" fill="white"/>
</g>
<defs>
<clipPath id="clip0_783_21670">
<rect width="30" height="30" fill="white"/>
</clipPath>
</defs>
</svg>
