<svg width="30" height="30" viewBox="0 0 30 30" fill="none" xmlns="http://www.w3.org/2000/svg">
<g clip-path="url(#clip0_783_21666)">
<rect x="0.5" y="0.5" width="29" height="29" rx="7.5" fill="white" stroke="#D4D4D4"/>
<path fill-rule="evenodd" clip-rule="evenodd" d="M22.9992 15.1811C22.9992 14.6136 22.9469 14.0687 22.8507 13.5449H15.163V16.6394H19.5563C19.3671 17.6395 18.7919 18.4866 17.9276 19.0541V21.0611H20.566C22.1094 19.6683 22.9999 17.6176 22.9999 15.1811H22.9992Z" fill="#3E82F1"/>
<path fill-rule="evenodd" clip-rule="evenodd" d="M15.1642 22.9994C17.3682 22.9994 19.2161 22.2827 20.5665 21.061L17.928 19.0541C17.1967 19.5341 16.2623 19.8175 15.1634 19.8175C13.0371 19.8175 11.2376 18.4104 10.5955 16.5195H7.86938V18.5921C9.21284 21.2065 11.9728 22.9994 15.1642 22.9994Z" fill="#32A753"/>
<path fill-rule="evenodd" clip-rule="evenodd" d="M10.5951 16.521C10.4321 16.0409 10.339 15.5284 10.339 15.0009C10.339 14.4733 10.4321 13.9608 10.5951 13.4807V11.4082H7.86821C7.31529 12.4882 7 13.7099 7 15.0009C7 16.2919 7.31529 17.5135 7.86821 18.5935L10.5951 16.521Z" fill="#F9BB00"/>
<path fill-rule="evenodd" clip-rule="evenodd" d="M15.1642 10.1819C16.3623 10.1819 17.4389 10.5859 18.2848 11.378L20.6265 9.08309C19.2123 7.79284 17.3643 7 15.1642 7C11.9728 7 9.21284 8.79293 7.86938 11.4073L10.5963 13.4799C11.2384 11.589 13.0379 10.1819 15.1642 10.1819Z" fill="#E74133"/>
</g>
<defs>
<clipPath id="clip0_783_21666">
<rect width="30" height="30" fill="white"/>
</clipPath>
</defs>
</svg>
