<svg width="24" height="24" viewBox="0 0 24 24" fill="none" xmlns="http://www.w3.org/2000/svg">
<mask id="path-1-inside-1_981_24399" fill="white">
<path d="M14.9999 19C14.9999 20.656 13.6559 22 11.9999 22C10.3439 22 8.99988 20.656 8.99988 19"/>
</mask>
<path d="M14.9999 19C14.9999 20.656 13.6559 22 11.9999 22C10.3439 22 8.99988 20.656 8.99988 19" fill="white"/>
<path d="M16.4999 19C16.4999 18.1716 15.8283 17.5 14.9999 17.5C14.1715 17.5 13.4999 18.1716 13.4999 19H16.4999ZM10.4999 19C10.4999 18.1716 9.82831 17.5 8.99988 17.5C8.17145 17.5 7.49988 18.1716 7.49988 19H10.4999ZM13.4999 19C13.4999 19.8276 12.8275 20.5 11.9999 20.5V23.5C14.4843 23.5 16.4999 21.4844 16.4999 19H13.4999ZM11.9999 20.5C11.1723 20.5 10.4999 19.8276 10.4999 19H7.49988C7.49988 21.4844 9.51545 23.5 11.9999 23.5V20.5Z" fill="black" mask="url(#path-1-inside-1_981_24399)"/>
<mask id="path-3-inside-2_981_24399" fill="white">
<path d="M4.99988 19V10.516C4.99988 6.91852 8.1325 4 11.9999 4C15.8646 4 18.9999 6.91605 18.9999 10.516V19"/>
</mask>
<path d="M4.99988 19V10.516C4.99988 6.91852 8.1325 4 11.9999 4C15.8646 4 18.9999 6.91605 18.9999 10.516V19" fill="white"/>
<path d="M3.49988 19C3.49988 19.8284 4.17145 20.5 4.99988 20.5C5.82831 20.5 6.49988 19.8284 6.49988 19H3.49988ZM17.4999 19C17.4999 19.8284 18.1715 20.5 18.9999 20.5C19.8283 20.5 20.4999 19.8284 20.4999 19H17.4999ZM6.49988 19V10.516H3.49988V19H6.49988ZM6.49988 10.516C6.49988 7.84599 8.85829 5.5 11.9999 5.5V2.5C7.40672 2.5 3.49988 5.99105 3.49988 10.516H6.49988ZM11.9999 5.5C15.1396 5.5 17.4999 7.84423 17.4999 10.516H20.4999C20.4999 5.98787 16.5896 2.5 11.9999 2.5V5.5ZM17.4999 10.516V19H20.4999V10.516H17.4999Z" fill="black" mask="url(#path-3-inside-2_981_24399)"/>
<path d="M3.99988 18.6016H19.9999" stroke="black" stroke-width="1.5" stroke-linecap="round" stroke-linejoin="round"/>
<path d="M11.9999 3L11.9999 4" stroke="black" stroke-width="1.5" stroke-linecap="round" stroke-linejoin="round"/>
</svg>
