<svg width="24" height="24" viewBox="0 0 24 24" fill="none" xmlns="http://www.w3.org/2000/svg">
<path fill-rule="evenodd" clip-rule="evenodd" d="M8.53518 4C8.20083 4 7.8886 4.1671 7.70313 4.4453L6.66667 6H6C4.34315 6 3 7.34315 3 9V17C3 18.6569 4.34315 20 6 20H18C19.6569 20 21 18.6569 21 17V9C21 7.34315 19.6569 6 18 6H17.3333L16.2969 4.4453C16.1114 4.1671 15.7992 4 15.4648 4H8.53518Z" fill="white"/>
<path d="M7.70313 4.4453L7.0791 4.02927V4.02927L7.70313 4.4453ZM6.66667 6V6.75H7.06805L7.2907 6.41603L6.66667 6ZM17.3333 6L16.7093 6.41603L16.9319 6.75H17.3333V6ZM16.2969 4.4453L16.9209 4.02927V4.02927L16.2969 4.4453ZM8.32717 4.86133C8.37354 4.79178 8.4516 4.75 8.53518 4.75V3.25C7.95007 3.25 7.40366 3.54243 7.0791 4.02927L8.32717 4.86133ZM7.2907 6.41603L8.32717 4.86132L7.0791 4.02927L6.04263 5.58397L7.2907 6.41603ZM6 6.75H6.66667V5.25H6V6.75ZM3.75 9C3.75 7.75736 4.75736 6.75 6 6.75V5.25C3.92893 5.25 2.25 6.92893 2.25 9H3.75ZM3.75 17V9H2.25V17H3.75ZM6 19.25C4.75736 19.25 3.75 18.2426 3.75 17H2.25C2.25 19.0711 3.92893 20.75 6 20.75V19.25ZM18 19.25H6V20.75H18V19.25ZM20.25 17C20.25 18.2426 19.2426 19.25 18 19.25V20.75C20.0711 20.75 21.75 19.0711 21.75 17H20.25ZM20.25 9V17H21.75V9H20.25ZM18 6.75C19.2426 6.75 20.25 7.75736 20.25 9H21.75C21.75 6.92893 20.0711 5.25 18 5.25V6.75ZM17.3333 6.75H18V5.25H17.3333V6.75ZM15.6728 4.86132L16.7093 6.41603L17.9574 5.58397L16.9209 4.02927L15.6728 4.86132ZM15.4648 4.75C15.5484 4.75 15.6265 4.79178 15.6728 4.86133L16.9209 4.02927C16.5963 3.54243 16.0499 3.25 15.4648 3.25V4.75ZM8.53518 4.75H15.4648V3.25H8.53518V4.75Z" fill="black"/>
<circle cx="12" cy="13" r="3.25" fill="white" stroke="black" stroke-width="1.5"/>
<path d="M18.5 9.75C18.5 10.1634 18.1634 10.5 17.75 10.5C17.3366 10.5 17 10.1634 17 9.75C17 9.3366 17.3366 9 17.75 9C18.1634 9 18.5 9.3366 18.5 9.75Z" fill="black"/>
</svg>
