<svg width="24" height="24" viewBox="0 0 24 24" fill="none" xmlns="http://www.w3.org/2000/svg">
<path d="M5.33333 4.75H18.6667C20.2582 4.75 21.25 5.75564 21.25 6.66667V17.3333C21.25 18.2444 20.2582 19.25 18.6667 19.25H5.33333C3.74177 19.25 2.75 18.2444 2.75 17.3333V6.66667C2.75 5.75565 3.74177 4.75 5.33333 4.75Z" fill="white" stroke="black" stroke-width="1.5" stroke-linecap="round" stroke-linejoin="round"/>
<path d="M11.3081 11.9569L11.3063 11.9553L4.05507 5.31684C4.47854 4.96214 5.02099 4.75 5.61325 4.75H18.3868C18.9774 4.75 19.5207 4.96232 19.9447 5.31704L12.6937 11.9553L12.692 11.9569C12.4651 12.166 12.2205 12.25 12 12.25C11.7795 12.25 11.5349 12.166 11.3081 11.9569Z" stroke="black" stroke-width="1.5" stroke-linecap="round" stroke-linejoin="round"/>
</svg>
