<svg width="24" height="24" viewBox="0 0 24 24" fill="none" xmlns="http://www.w3.org/2000/svg">
<path d="M13.9 21V21.1H14H16.8711C18.1003 21.1 19.1 20.1052 19.1 18.8803V17V16.9H19H18.2484H18.1484V17V18.8803C18.1484 19.5805 17.5754 20.1516 16.8711 20.1516H14H13.9V20.2516V21Z" fill="#838D9C" stroke="#838D9C" stroke-width="0.2"/>
<path d="M18.998 11H17.7695V9.17106C17.7695 5.90958 15.1816 3.25845 12 3.25845C8.81837 3.25845 6.22843 5.90958 6.22843 9.17106V11H5V9.17106C5 5.21743 8.14068 2 12 2C15.8593 2 19 5.21743 19 9.17106V11H18.998Z" fill="#838D9C"/>
<path d="M4.98302 18C3.33489 18 2 16.8956 2 15.5319V12.4681C2 11.1045 3.33489 10 4.98302 10C6.09836 10 7 10.746 7 11.6688V16.3312C7 17.2516 6.09836 18 4.98302 18Z" fill="#4267AF"/>
<path d="M13.5 22C14.3284 22 15 21.3284 15 20.5C15 19.6716 14.3284 19 13.5 19C12.6716 19 12 19.6716 12 20.5C12 21.3284 12.6716 22 13.5 22Z" fill="#333333"/>
<rect x="5" y="9" width="3" height="10" rx="1.5" fill="#CBCBCB"/>
<path d="M19.017 10C20.6651 10 22 11.1045 22 12.4681L22 15.5319C22 16.8955 20.6651 18 19.017 18C17.9016 18 17 17.254 17 16.3312L17 11.6688C17 10.7484 17.9016 10 19.017 10Z" fill="#4267AF"/>
<rect x="19" y="19" width="3" height="10" rx="1.5" transform="rotate(-180 19 19)" fill="#CBCBCB"/>
</svg>
