<svg width="24" height="24" viewBox="0 0 24 24" fill="none" xmlns="http://www.w3.org/2000/svg">
<path d="M13.9091 16.9255L19.9419 10.5704C21.3533 9.08357 21.3533 6.66981 19.9419 5.18299C18.5305 3.69617 16.2392 3.69617 14.8278 5.18299L12.6279 7.50035" stroke="black" stroke-linecap="round" stroke-linejoin="round"/>
<path d="M7.64307 12.7468L12.627 7.49658" stroke="black" stroke-linecap="round" stroke-linejoin="round"/>
<path d="M12.7576 18.1341L12.6414 18.2564C10.4345 20.5812 6.8585 20.5812 4.65515 18.2564C2.44828 15.9316 2.44828 12.1645 4.65515 9.83975L5.91873 8.50866L10.1987 4" stroke="black" stroke-linecap="round" stroke-linejoin="round"/>
<path d="M12.627 7.49658L7.64307 12.7468" stroke="black" stroke-linecap="round" stroke-linejoin="round"/>
<path d="M12.7578 18.134L13.9088 16.9253" stroke="black" stroke-linecap="round" stroke-linejoin="round"/>
<path d="M15.8053 9.83984L10.3462 15.5906C9.6 16.3767 8.38921 16.3767 7.64655 15.5906C6.90037 14.8046 6.90037 13.5328 7.64655 12.7467" stroke="black" stroke-linecap="round" stroke-linejoin="round"/>
</svg>
