<svg width="66" height="20" viewBox="0 0 66 20" fill="none" xmlns="http://www.w3.org/2000/svg">
<path d="M11.718 16.988C11.718 17.372 11.652 17.72 11.52 18.032C11.4 18.344 11.22 18.608 10.98 18.824C10.752 19.052 10.476 19.226 10.152 19.346C9.84 19.478 9.498 19.544 9.126 19.544H3.636C3.252 19.544 2.904 19.478 2.592 19.346C2.28 19.226 2.004 19.052 1.764 18.824C1.536 18.608 1.356 18.344 1.224 18.032C1.104 17.72 1.044 17.372 1.044 16.988V15.224H4.572V16.448H8.19V14.504H3.276C2.52 14.504 1.926 14.3 1.494 13.892C1.074 13.472 0.864 12.884 0.864 12.128V6.89C0.864 6.518 0.924 6.176 1.044 5.864C1.176 5.552 1.356 5.288 1.584 5.072C1.824 4.844 2.1 4.67 2.412 4.55C2.724 4.43 3.072 4.37 3.456 4.37H9.126C9.498 4.37 9.84 4.43 10.152 4.55C10.476 4.67 10.752 4.844 10.98 5.072C11.22 5.288 11.4 5.552 11.52 5.864C11.652 6.176 11.718 6.518 11.718 6.89V16.988ZM8.19 11.588V7.466H4.392V11.588H8.19ZM23.8391 13.028C23.8391 13.412 23.7731 13.76 23.6411 14.072C23.5211 14.384 23.3411 14.648 23.1011 14.864C22.8731 15.092 22.5971 15.266 22.2731 15.386C21.9611 15.518 21.6191 15.584 21.2471 15.584H15.5771C15.1931 15.584 14.8451 15.518 14.5331 15.386C14.2211 15.266 13.9451 15.092 13.7051 14.864C13.4771 14.648 13.2971 14.384 13.1651 14.072C13.0451 13.76 12.9851 13.412 12.9851 13.028V6.89C12.9851 6.518 13.0451 6.176 13.1651 5.864C13.2971 5.552 13.4771 5.288 13.7051 5.072C13.9451 4.844 14.2211 4.67 14.5331 4.55C14.8451 4.43 15.1931 4.37 15.5771 4.37H21.2471C21.6191 4.37 21.9611 4.43 22.2731 4.55C22.5971 4.67 22.8731 4.844 23.1011 5.072C23.3411 5.288 23.5211 5.552 23.6411 5.864C23.7731 6.176 23.8391 6.518 23.8391 6.89V13.028ZM20.3111 12.416V7.538H16.5131V12.416H20.3111ZM36.069 15.584H32.541V7.538H28.743V15.584H25.215V4.37H33.477C33.849 4.37 34.191 4.43 34.503 4.55C34.827 4.67 35.103 4.844 35.331 5.072C35.571 5.288 35.751 5.552 35.871 5.864C36.003 6.176 36.069 6.518 36.069 6.89V15.584ZM48.1868 16.988C48.1868 17.372 48.1208 17.72 47.9888 18.032C47.8688 18.344 47.6888 18.608 47.4488 18.824C47.2208 19.052 46.9448 19.226 46.6208 19.346C46.3088 19.478 45.9668 19.544 45.5948 19.544H40.1048C39.7208 19.544 39.3728 19.478 39.0608 19.346C38.7488 19.226 38.4728 19.052 38.2328 18.824C38.0048 18.608 37.8248 18.344 37.6928 18.032C37.5728 17.72 37.5128 17.372 37.5128 16.988V15.224H41.0408V16.448H44.6588V14.504H39.7448C38.9888 14.504 38.3948 14.3 37.9628 13.892C37.5428 13.472 37.3328 12.884 37.3328 12.128V6.89C37.3328 6.518 37.3928 6.176 37.5128 5.864C37.6448 5.552 37.8248 5.288 38.0528 5.072C38.2928 4.844 38.5688 4.67 38.8808 4.55C39.1928 4.43 39.5408 4.37 39.9248 4.37H45.5948C45.9668 4.37 46.3088 4.43 46.6208 4.55C46.9448 4.67 47.2208 4.844 47.4488 5.072C47.6888 5.288 47.8688 5.552 47.9888 5.864C48.1208 6.176 48.1868 6.518 48.1868 6.89V16.988ZM44.6588 11.588V7.466H40.8608V11.588H44.6588ZM60.3078 16.988C60.3078 17.372 60.2418 17.72 60.1098 18.032C59.9898 18.344 59.8098 18.608 59.5698 18.824C59.3418 19.052 59.0658 19.226 58.7418 19.346C58.4298 19.478 58.0878 19.544 57.7158 19.544H52.2258C51.8418 19.544 51.4938 19.478 51.1818 19.346C50.8698 19.226 50.5938 19.052 50.3538 18.824C50.1258 18.608 49.9458 18.344 49.8138 18.032C49.6938 17.72 49.6338 17.372 49.6338 16.988V15.224H53.1618V16.448H56.7798V14.504H51.8658C51.1098 14.504 50.5158 14.3 50.0838 13.892C49.6638 13.472 49.4538 12.884 49.4538 12.128V6.89C49.4538 6.518 49.5138 6.176 49.6338 5.864C49.7658 5.552 49.9458 5.288 50.1738 5.072C50.4138 4.844 50.6898 4.67 51.0018 4.55C51.3138 4.43 51.6618 4.37 52.0458 4.37H57.7158C58.0878 4.37 58.4298 4.43 58.7418 4.55C59.0658 4.67 59.3418 4.844 59.5698 5.072C59.8098 5.288 59.9898 5.552 60.1098 5.864C60.2418 6.176 60.3078 6.518 60.3078 6.89V16.988ZM56.7798 11.588V7.466H52.9818V11.588H56.7798ZM65.2469 3.362H61.7189V0.499999H65.2469V3.362ZM65.2469 15.584H61.7189V4.37H65.2469V15.584Z" fill="#333333"/>
</svg>
