<svg width="24" height="24" viewBox="0 0 24 24" fill="none" xmlns="http://www.w3.org/2000/svg">
<mask id="path-1-inside-1_448_4396" fill="white">
<path fill-rule="evenodd" clip-rule="evenodd" d="M8.51291 20.5833C8.50858 20.5833 8.50424 20.5833 8.49991 20.5833C5.73849 20.5833 3.49991 18.3448 3.49991 15.5833L3.49993 15.5706C2.57429 14.6632 2 13.3987 2 12C2 10.6013 2.57429 9.33681 3.49993 8.42936L3.49991 8.41667C3.49991 5.65524 5.73849 3.41667 8.49991 3.41667L8.5129 3.41668C9.41364 2.53998 10.6438 2 12 2C13.3562 2 14.5864 2.53998 15.4871 3.41668L15.5001 3.41667C18.2615 3.41667 20.5001 5.65524 20.5001 8.41667L20.5001 8.42935C21.4257 9.33681 22 10.6013 22 12C22 13.3987 21.4257 14.6632 20.5001 15.5706L20.5001 15.5833C20.5001 18.3448 18.2615 20.5833 15.5001 20.5833C15.4958 20.5833 15.4914 20.5833 15.4871 20.5833C14.5864 21.46 13.3562 22 12 22C10.6438 22 9.41364 21.46 8.51291 20.5833Z"/>
</mask>
<path d="M8.51291 20.5833L9.55913 19.5084L9.12072 19.0817L8.50894 19.0833L8.51291 20.5833ZM3.49991 15.5833L1.99991 15.5815V15.5833H3.49991ZM3.49993 15.5706L4.99993 15.5725L5.00071 14.9414L4.55002 14.4995L3.49993 15.5706ZM3.49993 8.42936L4.55002 9.50048L5.00071 9.05864L4.99993 8.4275L3.49993 8.42936ZM3.49991 8.41667H1.99991L1.99991 8.41853L3.49991 8.41667ZM8.49991 3.41667L8.50181 1.91667H8.49991V3.41667ZM8.5129 3.41668L8.511 4.91668L9.12158 4.91746L9.55912 4.49159L8.5129 3.41668ZM15.4871 3.41668L14.4409 4.49159L14.8784 4.91746L15.489 4.91668L15.4871 3.41668ZM15.5001 3.41667V1.91667L15.4982 1.91667L15.5001 3.41667ZM20.5001 8.41667L22.0001 8.4187V8.41667H20.5001ZM20.5001 8.42935L19.0001 8.42732L18.9992 9.05857L19.45 9.50048L20.5001 8.42935ZM20.5001 15.5706L19.45 14.4995L18.9992 14.9414L19.0001 15.5727L20.5001 15.5706ZM20.5001 15.5833H22.0001L22.0001 15.5813L20.5001 15.5833ZM15.4871 20.5833L15.4911 19.0833L14.8793 19.0817L14.4409 19.5084L15.4871 20.5833ZM8.49991 22.0833C8.50557 22.0833 8.51122 22.0833 8.51687 22.0833L8.50894 19.0833C8.50593 19.0833 8.50292 19.0833 8.49991 19.0833V22.0833ZM1.99991 15.5833C1.99991 19.1732 4.91006 22.0833 8.49991 22.0833V19.0833C6.56691 19.0833 4.99991 17.5163 4.99991 15.5833H1.99991ZM1.99993 15.5688L1.99991 15.5815L4.99991 15.5852L4.99993 15.5725L1.99993 15.5688ZM0.5 12C0.5 13.8179 1.24829 15.4638 2.44984 16.6418L4.55002 14.4995C3.90029 13.8626 3.5 12.9794 3.5 12H0.5ZM2.44984 7.35823C1.24829 8.53618 0.5 10.1821 0.5 12H3.5C3.5 11.0206 3.90029 10.1374 4.55002 9.50048L2.44984 7.35823ZM1.99991 8.41853L1.99993 8.43122L4.99993 8.4275L4.99991 8.41481L1.99991 8.41853ZM8.49991 1.91667C4.91006 1.91667 1.99991 4.82682 1.99991 8.41667H4.99991C4.99991 6.48367 6.56691 4.91667 8.49991 4.91667V1.91667ZM8.5148 1.91669L8.50181 1.91667L8.49801 4.91667L8.511 4.91668L8.5148 1.91669ZM12 0.5C10.2374 0.5 8.63614 1.20352 7.46668 2.34178L9.55912 4.49159C10.1911 3.87644 11.0501 3.5 12 3.5V0.5ZM16.5333 2.34178C15.3639 1.20352 13.7626 0.5 12 0.5V3.5C12.9499 3.5 13.8089 3.87644 14.4409 4.49159L16.5333 2.34178ZM15.4982 1.91667L15.4852 1.91669L15.489 4.91668L15.502 4.91667L15.4982 1.91667ZM22.0001 8.41667C22.0001 4.82682 19.0899 1.91667 15.5001 1.91667V4.91667C17.4331 4.91667 19.0001 6.48367 19.0001 8.41667H22.0001ZM22.0001 8.43138L22.0001 8.4187L19.0001 8.41464L19.0001 8.42732L22.0001 8.43138ZM23.5 12C23.5 10.1821 22.7517 8.53617 21.5502 7.35822L19.45 9.50048C20.0997 10.1374 20.5 11.0206 20.5 12H23.5ZM21.5502 16.6418C22.7517 15.4638 23.5 13.8179 23.5 12H20.5C20.5 12.9794 20.0997 13.8626 19.45 14.4995L21.5502 16.6418ZM22.0001 15.5813L22.0001 15.5686L19.0001 15.5727L19.0001 15.5854L22.0001 15.5813ZM15.5001 22.0833C19.0899 22.0833 22.0001 19.1732 22.0001 15.5833H19.0001C19.0001 17.5163 17.4331 19.0833 15.5001 19.0833V22.0833ZM15.4831 22.0833C15.4888 22.0833 15.4944 22.0833 15.5001 22.0833V19.0833C15.4971 19.0833 15.4941 19.0833 15.4911 19.0833L15.4831 22.0833ZM14.4409 19.5084C13.8089 20.1236 12.9499 20.5 12 20.5V23.5C13.7626 23.5 15.3639 22.7965 16.5333 21.6582L14.4409 19.5084ZM12 20.5C11.0501 20.5 10.1911 20.1236 9.55913 19.5084L7.46668 21.6582C8.63615 22.7965 10.2374 23.5 12 23.5V20.5Z" fill="#FB5910" mask="url(#path-1-inside-1_448_4396)"/>
</svg>
