<svg width="24" height="24" viewBox="0 0 24 24" fill="none" xmlns="http://www.w3.org/2000/svg">
<path fill-rule="evenodd" clip-rule="evenodd" d="M12.0002 2C11.2112 2 10.5716 2.63959 10.5716 3.42857V10.5714H3.42857C2.63959 10.5714 2 11.211 2 12C2 12.789 2.63959 13.4286 3.42857 13.4286H10.5716V20.5714C10.5716 21.3604 11.2112 22 12.0002 22C12.7892 22 13.4288 21.3604 13.4288 20.5714V13.4286H20.5714C21.3604 13.4286 22 12.789 22 12C22 11.211 21.3604 10.5714 20.5714 10.5714H13.4288V3.42857C13.4288 2.63959 12.7892 2 12.0002 2Z" fill="white"/>
</svg>
