<svg width="16" height="16" viewBox="0 0 16 16" fill="none" xmlns="http://www.w3.org/2000/svg">
<path d="M9.521 1.06585L10.4901 3.55566C10.7269 4.15822 11.2697 4.57129 11.8963 4.61677L14.472 4.81004C15.9438 4.91994 16.5413 6.83373 15.4119 7.82283L13.4373 9.55092C12.9564 9.97158 12.7488 10.6386 12.9018 11.2676L13.5211 13.8749C13.8745 15.3643 12.3116 16.5467 11.0584 15.7357L8.86888 14.3145C8.33699 13.9697 7.66301 13.9697 7.13112 14.3145L4.94161 15.7357C3.68838 16.5467 2.12549 15.3643 2.47887 13.8749L3.0982 11.2676C3.24757 10.6348 3.03991 9.96779 2.56266 9.55092L0.5881 7.82283C-0.541263 6.83373 0.0562059 4.91994 1.52802 4.81004L4.1037 4.61677C4.72667 4.57129 5.27314 4.15822 5.50994 3.55566L6.479 1.06585C7.03276 -0.355282 8.96725 -0.355282 9.521 1.06585Z" fill="white"/>
</svg>
